# Blender v2.79 (sub 0) OBJ File: ''
# www.blender.org
mtllib corn4.mtl
o Corn_Untitled.001
v 0.040032 0.266985 -0.049652
v 0.096649 0.071499 0.008957
v 0.099736 0.063362 -0.063496
v 0.022297 0.065109 -0.114704
v -0.070617 0.080164 -0.088168
v -0.086965 0.092229 -0.012822
v 0.029692 0.084892 0.071988
v 0.094508 -0.035114 0.031992
v 0.107002 -0.047499 -0.062605
v 0.012225 -0.046195 -0.123897
v -0.093784 -0.032394 -0.088217
v -0.109984 -0.019436 0.008041
v -0.048758 -0.004270 0.082389
v 0.017373 -0.009074 0.088601
v -0.003943 -0.143562 -0.007854
v -0.010736 0.172954 0.147676
v 0.054901 0.262837 -0.084441
v -0.018275 0.275780 -0.139043
v -0.145942 0.247840 -0.069028
v -0.141649 0.208812 0.031442
v -0.004505 0.180677 0.168578
v 0.032099 0.265187 -0.019907
v 0.053320 0.243624 -0.041703
v 0.048080 0.243416 -0.029734
v 0.056533 0.241370 -0.056601
v 0.057070 0.235615 -0.076887
v 0.041356 0.235862 -0.086987
v -0.011946 0.253037 -0.109378
v -0.029500 0.255655 -0.103660
v -0.092927 0.201043 -0.088372
v -0.094532 0.202812 -0.072916
v -0.142389 0.191737 0.030876
v -0.142551 0.198453 0.048261
v -0.001514 0.172112 0.148240
v 0.034895 0.246061 -0.016781
v -0.071437 0.084232 0.050864
v -0.024062 0.082110 0.092233
v 0.035109 0.263962 -0.050266
v 0.091419 0.070352 0.006701
v 0.094594 0.062697 -0.060872
v 0.021355 0.064825 -0.108978
v -0.066376 0.080003 -0.084199
v -0.081197 0.092891 -0.013044
v 0.026494 0.084697 0.067141
v 0.089944 -0.033266 0.028906
v 0.102099 -0.045274 -0.060421
v 0.011729 -0.044110 -0.118496
v -0.089394 -0.030765 -0.084776
v -0.104530 -0.018257 0.006420
v -0.046019 -0.002608 0.077541
v 0.015937 -0.007577 0.083174
v -0.003642 -0.137800 -0.008538
v -0.010104 0.177128 0.143684
v 0.051824 0.263913 -0.079631
v -0.016599 0.280305 -0.135807
v -0.142098 0.252195 -0.069170
v -0.135861 0.208341 0.031636
v -0.003903 0.186000 0.166328
v 0.027999 0.263943 -0.023832
v 0.048055 0.241296 -0.042488
v 0.044035 0.241680 -0.033527
v 0.051189 0.239201 -0.057308
v 0.053933 0.235836 -0.072001
v 0.038208 0.236039 -0.082107
v -0.009990 0.255438 -0.104461
v -0.027586 0.257760 -0.098594
v -0.087686 0.203538 -0.088110
v -0.089435 0.205587 -0.072625
v -0.136995 0.193770 0.030143
v -0.137056 0.200249 0.047677
v -0.001228 0.176396 0.144325
v 0.030820 0.244463 -0.020602
v -0.066015 0.085996 0.049746
v -0.025517 0.083570 0.086800
v 0.018026 0.258939 -0.044879
v 0.076620 0.074015 0.007569
v 0.091067 0.064363 -0.060735
v 0.018595 0.065297 -0.107308
v -0.062499 0.075998 -0.080266
v -0.070559 0.085441 -0.008902
v -0.025192 0.090216 0.064181
v 0.015716 0.086842 0.067136
v 0.089944 -0.033267 0.028907
v 0.102099 -0.045274 -0.060420
v 0.011729 -0.044111 -0.118496
v -0.089394 -0.030766 -0.084775
v -0.104530 -0.018258 0.006420
v -0.046019 -0.002609 0.077542
v 0.015937 -0.007577 0.083174
v -0.003642 -0.137800 -0.008538
v 0.032164 0.247761 -0.039913
v 0.035299 0.245666 -0.054734
v 0.019574 0.245869 -0.064839
v 0.001978 0.248191 -0.058972
v 0.000230 0.250240 -0.043487
v 0.010073 0.251276 -0.027630
v 0.018949 0.250544 -0.026988
vt 0.803414 0.063563
vt 0.803414 0.050706
vt 0.809843 0.050706
vt 0.809843 0.063563
vt 0.809843 0.050706
vt 0.816272 0.050706
vt 0.816272 0.063563
vt 0.816272 0.050706
vt 0.822700 0.050706
vt 0.822700 0.063563
vt 0.822700 0.050706
vt 0.829129 0.050706
vt 0.829129 0.063563
vt 0.829129 0.050706
vt 0.835557 0.050706
vt 0.835557 0.063563
vt 0.835557 0.050706
vt 0.841986 0.050706
vt 0.841986 0.063563
vt 0.841986 0.050706
vt 0.848415 0.050706
vt 0.809843 0.037849
vt 0.809843 0.050706
vt 0.803414 0.050706
vt 0.803414 0.037849
vt 0.816272 0.037849
vt 0.816272 0.050706
vt 0.822700 0.037849
vt 0.822700 0.050706
vt 0.829129 0.037849
vt 0.829129 0.050706
vt 0.835557 0.037849
vt 0.835557 0.050706
vt 0.841986 0.037849
vt 0.841986 0.050706
vt 0.835557 0.050706
vt 0.848415 0.037849
vt 0.848415 0.050706
vt 0.803414 0.024992
vt 0.809843 0.024992
vt 0.816272 0.024992
vt 0.822700 0.024992
vt 0.829129 0.024992
vt 0.835557 0.024992
vt 0.841986 0.024992
vt 0.809843 0.050706
vt 0.803414 0.050706
vt 0.803414 0.063563
vt 0.816272 0.050706
vt 0.809843 0.050706
vt 0.809843 0.063563
vt 0.822700 0.050706
vt 0.816272 0.050706
vt 0.816272 0.063563
vt 0.829129 0.050706
vt 0.822700 0.050706
vt 0.822700 0.063563
vt 0.835557 0.050706
vt 0.829129 0.050706
vt 0.829129 0.063563
vt 0.841986 0.050706
vt 0.835557 0.050706
vt 0.835557 0.063563
vt 0.848415 0.050706
vt 0.841986 0.050706
vt 0.841986 0.063563
vt 0.803414 0.050706
vt 0.809843 0.050706
vt 0.809843 0.037849
vt 0.803414 0.037849
vt 0.816272 0.050706
vt 0.816272 0.037849
vt 0.822700 0.050706
vt 0.822700 0.037849
vt 0.829129 0.050706
vt 0.829129 0.037849
vt 0.835557 0.050706
vt 0.835557 0.037849
vt 0.835557 0.050706
vt 0.841986 0.050706
vt 0.841986 0.037849
vt 0.848415 0.050706
vt 0.848415 0.037849
vt 0.803414 0.024992
vt 0.809843 0.024992
vt 0.816272 0.024992
vt 0.822700 0.024992
vt 0.829129 0.024992
vt 0.835557 0.024992
vt 0.841986 0.024992
vt 0.947670 0.205758
vt 0.947670 0.192901
vt 0.954099 0.192901
vt 0.954099 0.205758
vt 0.960527 0.192901
vt 0.960527 0.205758
vt 0.966956 0.192901
vt 0.966956 0.205758
vt 0.973384 0.192901
vt 0.973384 0.205758
vt 0.979813 0.192901
vt 0.979813 0.205758
vt 0.986241 0.192901
vt 0.986241 0.205758
vt 0.992670 0.192901
vt 0.954099 0.180044
vt 0.954099 0.192901
vt 0.947670 0.192901
vt 0.947670 0.180044
vt 0.960527 0.180044
vt 0.960527 0.192901
vt 0.966956 0.180044
vt 0.966956 0.192901
vt 0.973384 0.180044
vt 0.973384 0.192901
vt 0.979813 0.180044
vt 0.979813 0.192901
vt 0.986241 0.180044
vt 0.986241 0.192901
vt 0.992670 0.180044
vt 0.992670 0.192901
vt 0.947670 0.167187
vt 0.954099 0.167187
vt 0.960527 0.167187
vt 0.966956 0.167187
vt 0.973384 0.167187
vt 0.979813 0.167187
vt 0.986241 0.167187
vn 0.8487 0.5184 0.1046
vn 0.5290 -0.1875 -0.8276
vn -0.2938 -0.7878 -0.5413
vn -0.6580 -0.7528 0.0179
vn -0.9987 0.0442 -0.0264
vn -0.1070 -0.9219 0.3725
vn -0.0900 -0.9255 0.3679
vn 0.7061 0.2136 0.6751
vn 0.8417 -0.3875 -0.3761
vn 0.8887 0.0516 -0.4556
vn 0.9086 0.0934 0.4071
vn 0.7850 -0.3238 0.5282
vn 0.0848 -0.3635 -0.9277
vn 0.1487 0.0546 -0.9874
vn -0.7548 -0.2844 -0.5911
vn -0.7241 0.1350 -0.6763
vn -0.9384 -0.2045 0.2786
vn -0.9900 0.1229 0.0692
vn -0.4691 -0.2985 0.8311
vn -0.9620 -0.1706 0.2131
vn 0.2454 -0.2635 0.9329
vn 0.7837 0.4370 0.4413
vn 0.1860 0.0454 0.9815
vn -0.0522 -0.9918 0.1166
vn 0.9718 0.2353 0.0150
vn 0.9449 0.2852 0.1607
vn 0.5513 0.0734 -0.8311
vn 0.5402 0.0686 -0.8387
vn -0.2775 -0.0198 -0.9605
vn -0.3137 -0.0303 -0.9491
vn -0.9689 -0.1661 -0.1836
vn -0.9801 -0.1810 -0.0810
vn -0.8420 -0.5210 0.1399
vn -0.8152 -0.5428 0.2020
vn 0.3178 -0.5571 0.7673
vn -0.0987 -0.5078 0.8558
vn 0.6800 0.3385 0.6504
vn 0.6944 0.3298 0.6395
vn -0.8474 -0.5203 -0.1057
vn -0.5296 0.1852 0.8278
vn 0.2885 0.7788 0.5570
vn 0.6616 0.7494 -0.0244
vn 0.9962 -0.0810 0.0334
vn 0.1035 0.9161 -0.3873
vn -0.7057 -0.2142 -0.6754
vn -0.9059 -0.0984 -0.4120
vn -0.8885 -0.0569 0.4553
vn -0.8438 0.3829 0.3760
vn -0.7855 0.3180 -0.5310
vn -0.1470 -0.0596 0.9873
vn -0.0854 0.3589 0.9295
vn 0.7270 -0.1410 0.6720
vn 0.7555 0.2802 0.5922
vn 0.9892 -0.1260 -0.0746
vn 0.9386 0.2029 -0.2791
vn 0.9647 0.1497 -0.2168
vn 0.4714 0.2860 -0.8343
vn -0.1940 -0.0493 -0.9798
vn -0.2647 0.1101 -0.9580
vn -0.2471 0.2577 -0.9341
vn 0.0518 0.9917 -0.1178
vn -0.9710 -0.2384 -0.0186
vn -0.9450 -0.2856 -0.1595
vn -0.5474 -0.0760 0.8334
vn -0.5489 -0.0766 0.8323
vn -0.5423 -0.0739 0.8369
vn -0.5399 -0.0729 0.8386
vn 0.2746 0.0179 0.9614
vn 0.3198 0.0301 0.9470
vn 0.9714 0.1624 0.1729
vn 0.9811 0.1720 0.0880
vn 0.8413 0.5204 -0.1463
vn 0.8202 0.5375 -0.1957
vn -0.3040 0.5580 -0.7721
vn 0.1035 0.5042 -0.8574
vn -0.6799 -0.3405 -0.6495
vn -0.6944 -0.3319 -0.6385
vn -0.2339 0.2072 0.9499
vn -0.2357 0.1902 0.9530
vn -0.2348 0.1910 0.9531
vn -0.2351 0.2069 0.9497
vn -0.0284 0.2550 -0.9665
vn 0.0590 0.1596 -0.9854
vn 0.0621 0.1603 -0.9851
vn -0.0345 0.2526 -0.9670
vn 0.8258 0.2237 0.5178
vn 0.8447 0.2046 0.4946
vn 0.8426 0.2045 0.4982
vn 0.8216 0.2236 0.5244
vn -0.7300 0.4069 -0.5492
vn -0.7990 0.2999 -0.5213
vn -0.7958 0.2955 -0.5285
vn -0.7267 0.4043 -0.5554
vn 0.9268 0.0140 -0.3753
vn 0.9437 -0.1328 -0.3031
vn 0.9435 -0.1332 -0.3035
vn 0.9276 0.0247 -0.3727
vn -0.9196 0.3911 -0.0374
vn -0.8935 0.4159 0.1694
vn -0.9058 0.3895 0.1667
vn -0.9256 0.3756 -0.0457
vn -0.0239 0.1457 -0.9890
vn -0.2133 0.1569 -0.9643
vn -0.2074 0.1627 -0.9646
vn -0.0045 0.1404 -0.9901
vn 0.0500 -0.0181 0.9986
vn -0.1491 0.1786 0.9725
vn -0.1500 0.1801 0.9722
vn 0.0530 -0.0142 0.9985
vn -0.1804 0.1947 -0.9641
vn 0.0361 0.0316 -0.9989
vn -0.0045 0.0475 -0.9989
vn -0.2011 0.1933 -0.9603
vn 0.0041 0.8850 0.4656
vn -0.2199 0.8358 0.5030
vn -0.1749 0.8496 0.4976
vn 0.0571 0.8897 0.4530
vn -0.9738 0.2131 0.0788
vn -0.9570 0.1979 0.2122
vn -0.9562 0.2109 0.2028
vn -0.9743 0.2123 0.0758
vn 0.9894 -0.0372 0.1403
vn 0.9834 0.0823 0.1620
vn 0.9823 0.0794 0.1698
vn 0.9884 -0.0514 0.1426
vn -0.7109 0.1913 0.6768
vn -0.6939 0.0162 0.7199
vn -0.6929 0.0170 0.7209
vn -0.7114 0.1918 0.6761
vn 0.4389 0.6068 -0.6627
vn 0.5646 0.3280 -0.7574
vn 0.5723 0.3256 -0.7527
vn 0.4454 0.6073 -0.6579
vn 0.1393 0.2206 0.9654
vn 0.7403 0.3858 0.5506
vn 0.7269 0.3870 0.5673
vn 0.1250 0.2235 0.9666
vn -0.8903 0.2545 -0.3776
vn -0.9535 0.1104 0.2805
vn -0.9534 0.1269 0.2736
vn -0.8769 0.2526 -0.4089
vn -0.4457 -0.0736 -0.8922
vn -0.4366 -0.0716 -0.8968
vn -0.4155 0.1527 0.8967
vn -0.4193 0.1512 0.8952
vn -0.9788 0.1343 -0.1544
vn -0.9774 0.1352 -0.1623
vn 0.4421 0.1609 0.8824
vn 0.4324 0.1586 0.8876
vn -0.6624 0.2185 0.7166
vn -0.6692 0.2192 0.7101
vn 0.9750 0.1569 0.1576
vn 0.9734 0.1561 0.1679
vn -0.0209 0.4763 0.8790
vn -0.0279 0.4755 0.8793
vn 0.6699 0.0930 -0.7366
vn 0.6822 0.0947 -0.7250
vn 0.0853 0.0712 0.9938
vn 0.0829 0.0695 0.9941
vn -0.0805 0.3545 -0.9316
vn -0.0767 0.3562 -0.9312
vn -0.0900 -0.9255 0.3680
vn 0.7838 0.4370 0.4413
vn -0.2648 0.1101 -0.9580
vn 0.9713 0.1217 0.2042
vn 0.4108 -0.0882 -0.9075
vn 0.4163 -0.0863 -0.9051
vn -0.7983 0.3065 0.5184
vn -0.8005 0.3050 0.5159
vn 0.0978 0.9941 -0.0473
vn 0.5777 0.8008 0.1578
vn 0.4756 0.8317 -0.2865
vn 0.1313 0.8340 -0.5359
vn -0.2506 0.8859 -0.3904
vn -0.4396 0.8982 -0.0071
vn -0.1713 0.9272 0.3330
vn 0.2424 0.8830 0.4019
vn 0.8601 -0.3551 -0.3662
vn 0.9204 0.0915 -0.3802
vn 0.8795 0.1795 0.4408
vn 0.8089 -0.2705 0.5221
vn 0.0884 -0.3523 -0.9317
vn 0.1325 0.0926 -0.9868
vn -0.7619 -0.2604 -0.5931
vn -0.7324 0.2261 -0.6422
vn -0.9458 -0.1670 0.2784
vn -0.9277 0.3101 0.2080
vn -0.4898 -0.1316 0.8618
vn -0.4777 0.2338 0.8469
vn 0.2320 -0.1942 0.9531
vn 0.3148 0.1890 0.9302
vn -0.0518 -0.9917 0.1178
vn 0.9450 0.2854 0.1595
vn 0.9450 0.2854 0.1596
vn 0.5324 0.1911 -0.8246
vn -0.2821 0.2211 -0.9336
vn -0.9193 0.3630 -0.1519
vn -0.7793 0.4303 0.4556
vn -0.0215 0.4987 0.8665
vn 0.6917 0.3497 0.6319
usemtl shared_texture.001
s 1
f 1/1/1 23/2/1 25/3/1
f 17/4/2 26/5/2 27/6/2
f 18/7/3 28/8/3 29/9/3
f 19/10/4 30/11/4 31/12/4
f 20/13/5 32/14/5 33/15/5
f 21/16/6 16/17/6 34/18/7
f 22/19/8 35/20/8 24/21/8
f 9/22/9 3/23/10 2/24/11
f 2/24/11 8/25/12 9/22/9
f 10/26/13 4/27/14 3/23/10
f 3/23/10 9/22/9 10/26/13
f 11/28/15 5/29/16 4/27/14
f 4/27/14 10/26/13 11/28/15
f 12/30/17 6/31/18 5/29/16
f 5/29/16 11/28/15 12/30/17
f 13/32/19 36/33/20 6/31/18
f 6/31/18 12/30/17 13/32/19
f 14/34/21 7/35/22 37/36/23
f 37/36/23 13/32/19 14/34/21
f 8/37/12 2/38/11 7/35/22
f 7/35/22 14/34/21 8/37/12
f 15/39/24 9/22/9 8/25/12
f 15/40/24 10/26/13 9/22/9
f 15/41/24 11/28/15 10/26/13
f 15/42/24 12/30/17 11/28/15
f 15/43/24 13/32/19 12/30/17
f 15/44/24 14/34/21 13/32/19
f 15/45/24 8/37/12 14/34/21
f 2/24/25 3/23/25 25/3/25
f 25/3/26 23/2/26 2/24/26
f 3/23/27 4/27/27 27/6/27
f 27/6/28 26/5/28 3/23/28
f 4/27/29 5/29/29 29/9/29
f 29/9/30 28/8/30 4/27/30
f 5/29/31 6/31/31 31/12/31
f 31/12/32 30/11/32 5/29/32
f 6/31/33 36/33/33 33/15/33
f 33/15/34 32/14/34 6/31/34
f 37/36/35 7/35/35 34/18/35
f 34/18/36 16/17/36 37/36/36
f 7/35/37 2/38/37 24/21/37
f 24/21/38 35/20/38 7/35/38
f 62/46/39 60/47/39 38/48/39
f 64/49/40 63/50/40 54/51/40
f 66/52/41 65/53/41 55/54/41
f 68/55/42 67/56/42 56/57/42
f 70/58/43 69/59/43 57/60/43
f 71/61/44 53/62/44 58/63/44
f 61/64/45 72/65/45 59/66/45
f 39/67/46 40/68/47 46/69/48
f 46/69/48 45/70/49 39/67/46
f 40/68/47 41/71/50 47/72/51
f 47/72/51 46/69/48 40/68/47
f 41/71/50 42/73/52 48/74/53
f 48/74/53 47/72/51 41/71/50
f 42/73/52 43/75/54 49/76/55
f 49/76/55 48/74/53 42/73/52
f 43/75/54 73/77/56 50/78/57
f 50/78/57 49/76/55 43/75/54
f 74/79/58 44/80/59 51/81/60
f 51/81/60 50/78/57 74/79/58
f 44/80/59 39/82/46 45/83/49
f 45/83/49 51/81/60 44/80/59
f 45/70/49 46/69/48 52/84/61
f 46/69/48 47/72/51 52/85/61
f 47/72/51 48/74/53 52/86/61
f 48/74/53 49/76/55 52/87/61
f 49/76/55 50/78/57 52/88/61
f 50/78/57 51/81/60 52/89/61
f 51/81/60 45/83/49 52/90/61
f 62/46/62 40/68/62 39/67/62
f 39/67/63 60/47/63 62/46/63
f 64/49/64 41/71/65 40/68/66
f 40/68/66 63/50/67 64/49/64
f 66/52/68 42/73/68 41/71/68
f 41/71/69 65/53/69 66/52/69
f 68/55/70 43/75/70 42/73/70
f 42/73/71 67/56/71 68/55/71
f 70/58/72 73/77/72 43/75/72
f 43/75/73 69/59/73 70/58/73
f 71/61/74 44/80/74 74/79/74
f 74/79/75 53/62/75 71/61/75
f 61/64/76 39/82/76 44/80/76
f 44/80/77 72/65/77 61/64/77
f 23/2/78 1/1/79 38/48/80
f 38/48/80 60/47/81 23/2/78
f 1/1/82 25/3/83 62/46/84
f 62/46/84 38/48/85 1/1/82
f 26/5/86 17/4/87 54/51/88
f 54/51/88 63/50/89 26/5/86
f 17/4/90 27/6/91 64/49/92
f 64/49/92 54/51/93 17/4/90
f 28/8/94 18/7/95 55/54/96
f 55/54/96 65/53/97 28/8/94
f 18/7/98 29/9/99 66/52/100
f 66/52/100 55/54/101 18/7/98
f 30/11/102 19/10/103 56/57/104
f 56/57/104 67/56/105 30/11/102
f 19/10/106 31/12/107 68/55/108
f 68/55/108 56/57/109 19/10/106
f 32/14/110 20/13/111 57/60/112
f 57/60/112 69/59/113 32/14/110
f 20/13/114 33/15/115 70/58/116
f 70/58/116 57/60/117 20/13/114
f 16/17/118 21/16/119 58/63/120
f 58/63/120 53/62/121 16/17/118
f 21/16/122 34/18/123 71/61/124
f 71/61/124 58/63/125 21/16/122
f 35/20/126 22/19/127 59/66/128
f 59/66/128 72/65/129 35/20/126
f 22/19/130 24/21/131 61/64/132
f 61/64/132 59/66/133 22/19/130
f 36/33/134 13/32/135 50/78/136
f 50/78/136 73/77/137 36/33/134
f 13/32/138 37/36/139 74/79/140
f 74/79/140 50/78/141 13/32/138
f 25/3/83 3/23/142 40/68/143
f 40/68/143 62/46/84 25/3/83
f 2/24/144 23/2/78 60/47/81
f 60/47/81 39/67/145 2/24/144
f 27/6/91 4/27/146 41/71/147
f 41/71/147 64/49/92 27/6/91
f 3/23/148 26/5/86 63/50/89
f 63/50/89 40/68/149 3/23/148
f 29/9/99 5/29/150 42/73/151
f 42/73/151 66/52/100 29/9/99
f 4/27/152 28/8/94 65/53/97
f 65/53/97 41/71/153 4/27/152
f 31/12/107 6/31/154 43/75/155
f 43/75/155 68/55/108 31/12/107
f 5/29/156 30/11/102 67/56/105
f 67/56/105 42/73/157 5/29/156
f 33/15/158 36/33/134 73/77/137
f 73/77/137 70/58/159 33/15/158
f 6/31/160 32/14/110 69/59/113
f 69/59/113 43/75/161 6/31/160
f 34/18/162 7/35/163 44/80/164
f 44/80/165 71/61/124 34/18/123
f 37/36/139 16/17/118 53/62/121
f 53/62/121 74/79/140 37/36/139
f 24/21/131 2/38/166 39/82/167
f 39/82/167 61/64/132 24/21/131
f 7/35/168 35/20/126 72/65/129
f 72/65/129 44/80/169 7/35/168
f 75/91/170 91/92/171 92/93/172
f 75/94/170 92/93/172 93/95/173
f 75/96/170 93/95/173 94/97/174
f 75/98/170 94/97/174 95/99/175
f 75/100/170 95/99/175 96/101/176
f 75/102/170 96/101/176 97/103/177
f 75/104/170 97/103/177 91/105/171
f 84/106/178 77/107/179 76/108/180
f 76/108/180 83/109/181 84/106/178
f 85/110/182 78/111/183 77/107/179
f 77/107/179 84/106/178 85/110/182
f 86/112/184 79/113/185 78/111/183
f 78/111/183 85/110/182 86/112/184
f 87/114/186 80/115/187 79/113/185
f 79/113/185 86/112/184 87/114/186
f 88/116/188 81/117/189 80/115/187
f 80/115/187 87/114/186 88/116/188
f 89/118/190 82/119/191 81/117/189
f 81/117/189 88/116/188 89/118/190
f 83/120/181 76/121/180 82/119/191
f 82/119/191 89/118/190 83/120/181
f 90/122/192 84/106/178 83/109/181
f 90/123/192 85/110/182 84/106/178
f 90/124/192 86/112/184 85/110/182
f 90/125/192 87/114/186 86/112/184
f 90/126/192 88/116/188 87/114/186
f 90/127/192 89/118/190 88/116/188
f 90/128/192 83/120/181 89/118/190
f 76/108/193 77/107/193 92/93/194
f 92/93/194 91/92/194 76/108/193
f 77/107/195 78/111/195 93/95/195
f 93/95/195 92/93/195 77/107/195
f 78/111/196 79/113/196 94/97/196
f 94/97/196 93/95/196 78/111/196
f 79/113/197 80/115/197 95/99/197
f 95/99/197 94/97/197 79/113/197
f 80/115/198 81/117/198 96/101/198
f 96/101/198 95/99/198 80/115/198
f 81/117/199 82/119/199 97/103/199
f 97/103/199 96/101/199 81/117/199
f 82/119/200 76/121/200 91/105/200
f 91/105/200 97/103/200 82/119/200
