# Blender v2.79 (sub 0) OBJ File: 'corn.blend'
# www.blender.org
mtllib corn.mtl
o corn_Plane.001
v -0.015010 -0.035883 0.914133
v -0.015010 -0.033871 0.914305
v -0.013276 -0.033696 0.913612
v -0.013276 -0.035935 0.913420
v -0.017026 -0.036012 0.914122
v -0.015019 -0.035806 0.914139
v -0.014728 -0.037452 0.913290
v -0.016963 -0.037682 0.913270
v -0.016435 -0.033555 0.914332
v -0.017345 -0.035350 0.914179
v -0.018947 -0.034614 0.913533
v -0.017932 -0.032614 0.913705
v -0.016014 -0.034625 0.915461
v -0.016014 -0.035335 0.915400
v -0.015770 -0.034981 0.915431
v -0.016479 -0.035055 0.915424
v -0.016157 -0.035324 0.915401
v -0.015836 -0.034689 0.915456
v -0.011490 -0.034846 0.913875
v -0.015662 -0.039368 0.913487
v -0.020033 -0.032842 0.914046
vn -0.3771 0.0791 -0.9228
vn -0.0387 0.4530 -0.8907
vn 0.3369 -0.0905 -0.9372
vn -0.7711 0.0544 -0.6344
vn -0.0790 0.8188 -0.5686
vn 0.6887 -0.2922 -0.6635
vn 0.1987 0.0837 -0.9765
vn 0.0202 -0.1131 -0.9934
vn -0.1772 0.1729 -0.9689
usemtl Material.002
s 1
f 1//1 2//1 3//1 4//1
f 5//2 6//2 7//2 8//2
f 9//3 10//3 11//3 12//3
usemtl Material.001
f 13//4 2//4 1//4 14//4
f 15//5 6//5 5//5 16//5
f 17//6 10//6 9//6 18//6
usemtl Material.004
f 4//7 3//7 19//7
f 8//8 7//8 20//8
f 12//9 11//9 21//9
o Cylinder.001_Cylinder.002
v 0.009687 0.226615 0.002708
v 0.005394 0.255062 0.008684
v 0.005401 0.253765 0.018729
v 0.009696 0.224736 0.017287
v -0.003028 0.223647 0.024564
v -0.003370 0.253016 0.023746
v -0.012144 0.253561 0.018714
v -0.015762 0.224439 0.017264
v -0.015770 0.226319 0.002684
v -0.012149 0.254859 0.008668
v -0.003380 0.255607 0.003652
v -0.003046 0.227407 -0.004592
v -0.011258 0.168511 -0.002542
v -0.015431 0.197534 -0.001028
v -0.002707 0.198622 -0.008305
v -0.002368 0.169269 -0.007627
v -0.002355 0.166641 0.012747
v -0.002692 0.194862 0.020851
v -0.015423 0.195654 0.013551
v -0.011254 0.167197 0.007646
v 0.006531 0.168716 -0.002524
v 0.010026 0.197829 -0.001005
v 0.010035 0.195949 0.013574
v 0.006535 0.167402 0.007662
v -0.008416 0.263135 0.011964
v -0.003478 0.263556 0.009139
v -0.003472 0.262097 0.020455
v -0.008412 0.262403 0.017620
v 0.001464 0.263249 0.011974
v 0.001466 0.262518 0.017630
v -0.007589 0.157949 -0.001840
v -0.002244 0.158407 -0.004897
v -0.004795 0.186132 -0.025522
v -0.031562 0.183843 -0.010213
v -0.034265 0.199095 -0.046961
v -0.044717 0.198201 -0.040985
v 0.003109 0.157284 0.004295
v -0.002236 0.156827 0.007353
v 0.000760 0.177573 0.030153
v 0.021519 0.179350 0.018282
v 0.020787 0.181521 0.050412
v 0.028858 0.182211 0.045797
v -0.007586 0.157160 0.004285
v -0.027191 0.181461 0.022026
v -0.002916 0.179949 0.035945
v -0.035249 0.182732 0.047181
v -0.025755 0.182141 0.052624
v 0.003107 0.158075 -0.001829
v 0.023324 0.175998 -0.019373
v -0.004249 0.177715 -0.035182
v 0.029462 0.177466 -0.050135
v 0.025175 0.177734 -0.052592
v 0.025347 0.183092 0.011187
v 0.025329 0.186935 -0.018607
v 0.055777 0.200743 -0.000154
v 0.055769 0.202465 -0.013498
v -0.023933 0.174290 -0.009118
v -0.023917 0.170831 0.017690
v -0.042125 0.176435 0.002992
v -0.042121 0.175434 0.010755
vn 0.3679 0.5766 0.7295
vn 0.1339 0.9187 0.3715
vn -0.3969 0.7043 -0.5887
vn -0.1245 0.9898 -0.0697
vn 0.3761 0.7248 -0.5772
vn 0.0768 0.9967 -0.0258
vn -0.2546 0.8077 0.5318
vn 0.0313 0.9981 0.0539
vn 0.4933 0.2495 -0.8333
vn 0.4943 0.0300 0.8688
vn 0.4524 0.3084 0.8368
vn -0.9923 0.1225 0.0163
vn -0.9898 -0.1414 -0.0178
vn -0.9999 -0.0117 -0.0010
vn 0.4976 -0.2340 0.8352
vn 0.5004 -0.1050 0.8594
vn 0.4967 -0.0143 -0.8678
vn 0.4994 0.1166 -0.8585
vn -0.9178 0.3937 0.0514
vn 0.4514 0.5107 -0.7317
vn 0.9892 0.1455 0.0181
vn -0.4965 0.0184 0.8679
vn -0.4975 0.2380 -0.8342
vn -0.4947 -0.0258 -0.8687
vn -0.5004 0.1049 -0.8594
vn -0.4936 -0.2455 0.8343
vn -0.4994 -0.1166 0.8585
vn 0.9928 -0.1184 -0.0158
vn 0.9999 0.0117 0.0009
vn -0.4618 0.5001 -0.7326
vn -0.4610 0.2979 0.8359
vn 0.9083 0.4149 0.0531
vn -0.4691 -0.4298 0.7715
vn -0.0116 0.9917 0.1280
vn 0.0117 -0.9917 -0.1279
vn 0.9504 -0.3084 -0.0402
vn -0.9429 -0.3304 -0.0422
vn 0.4766 -0.2091 -0.8539
vn 0.4776 -0.4187 0.7724
vn -0.4701 -0.2201 -0.8547
vn -0.7658 0.6378 0.0827
vn -0.4666 0.8772 0.1134
vn 0.6829 0.7245 0.0931
vn 0.1981 0.9721 0.1253
usemtl Material.012
s 1
f 52//10 53//10 54//10 55//10
f 55//11 54//11 56//11 57//11
f 58//12 59//12 60//12 61//12
f 61//13 60//13 62//13 63//13
usemtl Material.013
f 64//14 65//14 66//14 59//14
f 65//15 67//15 68//15 66//15
f 53//16 69//16 70//16 71//16
f 71//17 70//17 72//17 73//17
usemtl Material.009
f 33//18 32//18 23//18 22//18
f 25//19 24//19 27//19 26//19
f 27//20 24//20 51//20 48//20
f 29//21 28//21 31//21 30//21
f 41//22 40//22 35//22 34//22
f 40//23 29//23 30//23 35//23
f 45//24 44//24 39//24 38//24
f 44//25 25//25 26//25 39//25
f 37//26 36//26 43//26 42//26
f 36//27 33//27 22//27 43//27
f 31//28 28//28 49//28 46//28
f 23//29 32//29 47//29 50//29
usemtl Material.011
f 22//30 23//30 24//30 25//30
f 26//31 27//31 28//31 29//31
f 30//32 31//32 32//32 33//32
f 34//33 35//33 36//33 37//33
f 35//34 30//34 33//34 36//34
f 38//35 39//35 40//35 41//35
f 39//36 26//36 29//36 40//36
f 42//37 43//37 44//37 45//37
f 43//38 22//38 25//38 44//38
f 32//39 31//39 46//39 47//39
f 28//40 27//40 48//40 49//40
f 24//41 23//41 50//41 51//41
usemtl Material.010
f 38//42 41//42 64//42 59//42
f 50//43 47//43 46//43 49//43 48//43 51//43
f 53//44 69//44 58//44 59//44 64//44 52//44
f 42//45 45//45 58//45 69//45
f 41//46 34//46 52//46 64//46
f 37//47 42//47 69//47 53//47
f 45//48 38//48 59//48 58//48
f 34//49 37//49 53//49 52//49
f 69//50 58//50 74//50 75//50
f 75//51 74//51 76//51 77//51
f 64//52 52//52 78//52 79//52
f 79//53 78//53 80//53 81//53
o Cylinder
v -0.007024 -0.055336 0.003234
v -0.002783 -0.054860 0.010691
v 0.012107 0.026339 0.012709
v -0.009361 0.023916 -0.025060
v 0.020454 0.092477 -0.042858
v -0.009581 0.029731 0.005931
v -0.000993 0.029554 0.006007
v 0.010650 0.078067 0.023341
v -0.026685 0.078832 0.023003
v -0.008749 0.143498 0.079897
v 0.000799 0.114269 -0.002192
v -0.003439 0.113792 -0.009648
v 0.010287 0.139183 -0.039037
v 0.033505 0.141802 0.001808
v 0.062556 0.154849 -0.035234
v -0.007061 -0.163781 -0.001375
v -0.007024 -0.055336 0.003234
v -0.002783 -0.054860 0.010691
v -0.002763 -0.164417 0.006039
v -0.011373 -0.054683 0.010613
v -0.011356 -0.164417 0.006039
v -0.005231 0.029077 -0.001450
v -0.007791 0.114446 -0.002269
v -0.006313 -0.340873 -0.021310
v -0.002018 -0.341508 -0.013897
v -0.010608 -0.341508 -0.013897
v -0.006652 0.159947 0.004262
v -0.002705 0.161903 -0.003112
v 0.001929 0.159896 0.003837
vn -0.8640 0.1465 0.4817
vn -0.7879 0.4514 0.4189
vn -0.0153 -0.3331 0.9428
vn -0.0203 -0.6572 0.7534
vn 0.6335 -0.7068 -0.3148
vn 0.2925 -0.9504 -0.1053
vn 0.8671 0.0211 -0.4977
vn -0.0047 -0.0419 0.9991
vn -0.8622 -0.0307 -0.5056
vn -0.8632 0.0213 -0.5044
vn 0.0000 -0.9963 -0.0854
vn -0.8660 0.0523 -0.4972
vn 0.0000 -0.1119 0.9937
vn 0.8659 0.0596 -0.4967
vn -0.8716 0.0848 -0.4828
vn -0.0068 0.0965 0.9953
vn 0.8693 -0.0658 -0.4899
vn 0.0000 0.0000 1.0000
vn 0.8697 -0.0457 -0.4915
vn -0.0078 0.0556 0.9984
vn -0.8618 -0.0098 -0.5071
vn 0.0187 0.9637 0.2662
vn 0.0183 -0.1370 0.9904
vn 0.8528 0.0527 -0.5196
usemtl Material.006
s 1
f 82//54 83//54 84//54 85//54
f 85//55 84//55 86//55
f 87//56 88//56 89//56 90//56
f 90//57 89//57 91//57
f 92//58 93//58 94//58 95//58
f 95//59 94//59 96//59
usemtl Material.007
f 97//60 98//60 99//60 100//60
f 100//61 99//61 101//61 102//61
f 103//62 87//62 104//62 93//62
f 102//63 101//63 98//63 97//63
f 105//64 106//64 107//64
f 107//65 102//65 97//65 105//65
f 106//66 100//66 102//66 107//66
f 105//67 97//67 100//67 106//67
f 93//68 104//68 108//68 109//68
f 87//69 88//69 92//69 104//69
f 88//70 103//70 93//70 92//70
f 98//71 99//71 83//71 82//71
f 99//72 98//72 103//72 88//72
f 101//73 99//73 88//73 87//73
f 98//74 101//74 87//74 103//74
f 110//75 109//75 108//75
f 104//76 92//76 110//76 108//76
f 92//77 93//77 109//77 110//77
o Plane_Plane.003
v -0.023967 -0.203531 -0.035523
v -0.023967 -0.208887 0.026962
v -0.028282 -0.077770 0.030686
v -0.028282 -0.073693 -0.016878
v 0.025329 -0.206684 0.001262
v -0.027272 -0.203767 -0.032765
v -0.010037 -0.072129 -0.035114
v 0.030003 -0.074350 -0.009213
v -0.027554 -0.209590 0.035159
v 0.023335 -0.206459 -0.001359
v 0.027852 -0.070524 0.015081
v -0.010884 -0.072907 0.042878
v -0.007261 -0.351228 -0.005515
v -0.007261 -0.349322 -0.027748
v -0.063303 0.060183 0.018556
v -0.013869 -0.349685 -0.023514
v 0.005071 -0.350735 -0.011262
v 0.029051 0.066946 -0.049323
v 0.001410 -0.349933 -0.020611
v -0.012985 -0.350819 -0.010280
v 0.026970 0.056197 0.065054
vn -0.9995 -0.0328 -0.0028
vn 0.5378 -0.0854 -0.8387
vn 0.5838 -0.1166 0.8035
vn -0.9934 -0.1144 -0.0098
vn -0.9686 -0.2478 -0.0212
vn 0.5430 -0.0034 -0.8397
vn 0.5195 -0.2301 -0.8229
vn 0.5797 -0.1948 0.7912
vn 0.5685 -0.2984 0.7667
usemtl Material.003
s 1
f 111//78 112//78 113//78 114//78
f 115//79 116//79 117//79 118//79
f 119//80 120//80 121//80 122//80
usemtl Material.005
f 123//81 112//81 111//81 124//81
f 114//82 113//82 125//82
f 126//83 116//83 115//83 127//83
f 118//84 117//84 128//84
f 129//85 120//85 119//85 130//85
f 122//86 121//86 131//86
