# Blender v2.79 (sub 0) OBJ File: ''
# www.blender.org
mtllib untitled.mtl
o Plane.001
v -0.016014 -0.915073 0.043698
v -0.015010 -0.913857 0.044350
v -0.015010 -0.913857 0.042331
v -0.016014 -0.915073 0.042985
v -0.015770 -0.915073 0.043340
v -0.015019 -0.913857 0.042408
v -0.017026 -0.913857 0.042201
v -0.016479 -0.915073 0.043266
v -0.016157 -0.915073 0.042996
v -0.017345 -0.913857 0.042866
v -0.016435 -0.913857 0.044667
v -0.015836 -0.915073 0.043633
v -0.013276 -0.913151 0.044465
v -0.013276 -0.913151 0.042218
v -0.014728 -0.913151 0.040696
v -0.016963 -0.913151 0.040465
v -0.018947 -0.913151 0.043544
v -0.017932 -0.913151 0.045551
v -0.011490 -0.913511 0.043342
v -0.015662 -0.913511 0.038803
v -0.020033 -0.913511 0.045353
vn -0.3775 0.9260 -0.0000
vn -0.0386 0.9261 0.3754
vn 0.3369 0.9260 -0.1702
vn -0.7714 0.6364 0.0000
vn -0.0787 0.6363 0.7674
vn 0.6886 0.6363 -0.3478
vn 0.1987 0.9801 0.0000
vn 0.0203 0.9801 -0.1976
vn -0.1773 0.9801 0.0896
usemtl Material.002
s 1
f 3//1 2//1 13//1 14//1
f 7//2 6//2 15//2 16//2
f 11//3 10//3 17//3 18//3
usemtl Material.001
f 1//4 2//4 3//4 4//4
f 5//5 6//5 7//5 8//5
f 9//6 10//6 11//6 12//6
usemtl Material.004
f 14//7 13//7 19//7
f 16//8 15//8 20//8
f 18//9 17//9 21//9
o Cylinder
v -0.007061 -0.163300 0.012620
v -0.007024 -0.054858 0.007949
v -0.002783 -0.053746 0.015338
v -0.002763 -0.163300 0.020061
v -0.011373 -0.053577 0.015245
v -0.011356 -0.163300 0.020061
v -0.005231 0.028847 -0.003928
v -0.009581 0.030129 0.003370
v -0.007791 0.113834 -0.012036
v -0.003439 0.112552 -0.019333
v -0.006313 -0.341447 0.007884
v -0.002018 -0.341447 0.015325
v -0.010608 -0.341447 0.015325
v -0.006652 0.159726 -0.009416
v -0.002705 0.161045 -0.016930
v -0.000993 0.029959 0.003461
v 0.000799 0.113664 -0.011945
v -0.002783 -0.053746 0.015338
v -0.007024 -0.054858 0.007949
v 0.001929 0.159639 -0.009835
v 0.012107 0.027328 0.010413
v -0.009361 0.021688 -0.027011
v 0.020454 0.088478 -0.050600
v 0.010650 0.079775 0.016587
v -0.026685 0.080509 0.016185
v -0.008749 0.149798 0.067348
v 0.010287 0.135340 -0.050783
v 0.033505 0.141438 -0.010311
v 0.062556 0.151273 -0.048332
vn -0.8640 0.1871 0.4675
vn -0.7879 0.4855 0.3788
vn -0.0153 -0.2514 0.9678
vn -0.0203 -0.5905 0.8068
vn 0.6335 -0.7311 -0.2533
vn 0.2925 -0.9560 -0.0238
vn 0.8671 -0.0215 -0.4976
vn -0.0047 0.0436 0.9990
vn -0.8623 -0.0738 -0.5011
vn -0.8632 -0.0219 -0.5044
vn 0.0000 -1.0000 0.0000
vn -0.8660 0.0097 -0.4999
vn 0.0000 -0.0266 0.9996
vn 0.8659 0.0169 -0.4999
vn -0.8716 0.0433 -0.4883
vn -0.0069 0.1811 0.9834
vn 0.8693 -0.1074 -0.4825
vn 0.0000 0.0000 1.0000
vn 0.8697 -0.0875 -0.4858
vn -0.0079 0.1406 0.9900
vn -0.8618 -0.0531 -0.5044
vn 0.0187 0.9830 0.1829
vn 0.0183 -0.0519 0.9985
vn 0.8528 0.0081 -0.5222
usemtl Material.006
s 1
f 40//10 39//10 42//10 43//10
f 43//11 42//11 44//11
f 29//12 37//12 45//12 46//12
f 46//13 45//13 47//13
f 38//14 31//14 48//14 49//14
f 49//15 48//15 50//15
usemtl Material.007
f 22//16 23//16 24//16 25//16
f 25//17 24//17 26//17 27//17
f 28//18 29//18 30//18 31//18
f 27//19 26//19 23//19 22//19
f 32//20 33//20 34//20
f 34//21 27//21 22//21 32//21
f 33//22 25//22 27//22 34//22
f 32//23 22//23 25//23 33//23
f 31//24 30//24 35//24 36//24
f 29//25 37//25 38//25 30//25
f 37//26 28//26 31//26 38//26
f 23//27 24//27 39//27 40//27
f 24//28 23//28 28//28 37//28
f 26//29 24//29 37//29 29//29
f 23//30 26//30 29//30 28//30
f 41//31 36//31 35//31
f 30//32 38//32 41//32 35//32
f 38//33 31//33 36//33 41//33
o Cylinder.001_Cylinder.002
v -0.003046 0.226184 -0.024000
v -0.003380 0.254985 -0.018195
v 0.005394 0.254872 -0.013135
v 0.009687 0.226018 -0.016659
v 0.009696 0.225391 -0.001973
v 0.005401 0.254437 -0.003015
v -0.003370 0.254120 0.002047
v -0.003028 0.224928 0.005371
v 0.001466 0.263064 -0.004858
v -0.003472 0.262886 -0.002007
v -0.015762 0.225093 -0.001970
v -0.012144 0.254233 -0.003013
v -0.012149 0.254668 -0.013133
v -0.015770 0.225721 -0.016657
v -0.011254 0.167239 -0.006663
v -0.015423 0.196096 -0.003211
v -0.015431 0.196724 -0.017897
v -0.011258 0.167678 -0.016926
v 0.006535 0.167445 -0.006665
v 0.010035 0.196392 -0.003213
v -0.002692 0.195931 0.004130
v -0.002355 0.167121 -0.001534
v -0.002368 0.167999 -0.022058
v -0.002707 0.197187 -0.025240
v 0.010026 0.197020 -0.017899
v 0.006531 0.167884 -0.016926
v -0.008412 0.262949 -0.004858
v -0.008416 0.263195 -0.010556
v -0.003478 0.263373 -0.013407
v 0.001464 0.263310 -0.010556
v -0.007586 0.156952 -0.009155
v -0.002236 0.156882 -0.006070
v -0.002244 0.157410 -0.018410
v 0.003107 0.157341 -0.015325
v 0.003109 0.157076 -0.009155
v -0.007589 0.157215 -0.015325
v 0.025347 0.183378 -0.004493
v 0.025329 0.184662 -0.034506
v 0.055777 0.199996 -0.017300
v 0.055769 0.200572 -0.030743
v -0.023933 0.172874 -0.023972
v -0.023917 0.171718 0.003033
v -0.042125 0.176046 -0.012090
v -0.042121 0.175712 -0.004269
v -0.004795 0.183272 -0.041328
v -0.031562 0.182299 -0.025879
v -0.034265 0.194356 -0.063796
v -0.044717 0.193976 -0.057765
v 0.000760 0.179500 0.014875
v 0.021519 0.180256 0.002896
v 0.020787 0.185164 0.034723
v 0.028858 0.185457 0.030066
v -0.027191 0.182679 0.006446
v -0.002916 0.182362 0.020443
v -0.035249 0.186094 0.031400
v -0.025755 0.185970 0.036874
v 0.023324 0.173700 -0.034335
v -0.004249 0.174060 -0.050233
v 0.029462 0.172535 -0.065110
v 0.025175 0.172592 -0.067581
vn 0.9892 0.1465 0.0057
vn -0.4965 0.0925 0.8631
vn -0.4975 0.1659 -0.8515
vn -0.4946 -0.0999 -0.8633
vn -0.5004 0.0312 -0.8652
vn -0.4936 -0.1733 0.8522
vn -0.4995 -0.0428 0.8653
vn 0.9928 -0.1193 -0.0056
vn 0.9999 0.0117 -0.0001
vn -0.4618 0.4356 -0.7727
vn -0.4610 0.3682 0.8074
vn 0.9083 0.4179 0.0175
vn 0.3679 0.6368 0.6776
vn 0.1339 0.9471 0.2916
vn -0.3969 0.6514 -0.6467
vn -0.1246 0.9802 -0.1540
vn 0.3761 0.6729 -0.6370
vn 0.0768 0.9909 -0.1108
vn -0.2546 0.8502 0.4609
vn 0.0313 0.9990 -0.0316
vn 0.4933 0.1774 -0.8516
vn 0.4943 0.1041 0.8630
vn 0.4524 0.3787 0.8074
vn -0.9923 0.1234 0.0058
vn -0.9898 -0.1424 -0.0056
vn -0.9999 -0.0117 0.0001
vn 0.4976 -0.1618 0.8522
vn 0.5004 -0.0312 0.8652
vn 0.4967 -0.0884 -0.8634
vn 0.4994 0.0429 -0.8653
vn -0.9178 0.3966 0.0176
vn 0.4513 0.4464 -0.7727
vn -0.4691 -0.3623 0.8054
vn -0.0116 0.9990 0.0428
vn 0.0117 -0.9990 -0.0427
vn 0.9504 -0.3107 -0.0137
vn -0.9429 -0.3328 -0.0138
vn 0.4766 -0.2813 -0.8329
vn 0.4776 -0.3512 0.8053
vn -0.4701 -0.2923 -0.8328
vn -0.7658 0.6425 0.0279
vn -0.4665 0.8837 0.0381
vn 0.6829 0.7298 0.0309
vn 0.1980 0.9793 0.0418
usemtl Material.011
s 1
f 54//34 53//34 56//34 55//34
f 58//35 57//35 62//35 61//35
f 64//36 63//36 52//36 51//36
f 68//37 67//37 74//37 73//37
f 67//38 64//38 51//38 74//38
f 72//39 71//39 66//39 65//39
f 71//40 58//40 61//40 66//40
f 76//41 75//41 70//41 69//41
f 75//42 54//42 55//42 70//42
f 52//43 63//43 78//43 79//43
f 62//44 57//44 60//44 77//44
f 56//45 53//45 80//45 59//45
usemtl Material.012
f 86//46 83//46 95//46 96//46
f 96//47 95//47 97//47 98//47
f 85//48 82//48 99//48 100//48
f 100//49 99//49 101//49 102//49
usemtl Material.013
f 81//50 103//50 104//50 82//50
f 103//51 105//51 106//51 104//51
f 83//52 84//52 107//52 108//52
f 108//53 107//53 109//53 110//53
usemtl Material.009
f 51//54 52//54 53//54 54//54
f 55//55 56//55 57//55 58//55
f 57//56 56//56 59//56 60//56
f 61//57 62//57 63//57 64//57
f 65//58 66//58 67//58 68//58
f 66//59 61//59 64//59 67//59
f 69//60 70//60 71//60 72//60
f 70//61 55//61 58//61 71//61
f 73//62 74//62 75//62 76//62
f 74//63 51//63 54//63 75//63
f 63//64 62//64 77//64 78//64
f 53//65 52//65 79//65 80//65
usemtl Material.010
f 72//66 65//66 81//66 82//66
f 80//67 79//67 78//67 77//67 60//67 59//67
f 83//68 84//68 85//68 82//68 81//68 86//68
f 76//69 69//69 85//69 84//69
f 65//70 68//70 86//70 81//70
f 73//71 76//71 84//71 83//71
f 69//72 72//72 82//72 85//72
f 68//73 73//73 83//73 86//73
f 84//74 85//74 87//74 88//74
f 88//75 87//75 89//75 90//75
f 81//76 86//76 91//76 92//76
f 92//77 91//77 93//77 94//77
o Plane_Plane.003
v -0.023967 -0.205821 -0.018008
v -0.023967 -0.205821 0.044706
v -0.028282 -0.074865 0.037217
v -0.028282 -0.074865 -0.010522
v 0.025329 -0.205821 0.018912
v -0.027272 -0.205821 -0.015240
v -0.010037 -0.074865 -0.028825
v 0.030003 -0.074865 -0.002829
v -0.027554 -0.205821 0.052933
v 0.023335 -0.205821 0.016281
v 0.027852 -0.068978 0.021050
v -0.010884 -0.068978 0.048949
v -0.007261 -0.350415 0.024506
v -0.007261 -0.350415 0.002192
v -0.063303 0.061548 0.013348
v -0.013869 -0.350415 0.006441
v 0.005071 -0.350415 0.018738
v 0.029051 0.062488 -0.054861
v 0.001410 -0.350415 0.009355
v -0.012985 -0.350415 0.019724
v 0.026970 0.061548 0.060016
vn -0.9995 -0.0329 0.0000
vn 0.5378 -0.1567 -0.8284
vn 0.5838 -0.0475 0.8105
vn -0.9934 -0.1148 0.0000
vn -0.9686 -0.2487 -0.0000
vn 0.5430 -0.0751 -0.8364
vn 0.5196 -0.2995 -0.8002
vn 0.5798 -0.1265 0.8049
vn 0.5685 -0.2318 0.7893
usemtl Material.003
s 1
f 111//78 112//78 113//78 114//78
f 115//79 116//79 117//79 118//79
f 119//80 120//80 121//80 122//80
usemtl Material.005
f 123//81 112//81 111//81 124//81
f 114//82 113//82 125//82
f 126//83 116//83 115//83 127//83
f 118//84 117//84 128//84
f 129//85 120//85 119//85 130//85
f 122//86 121//86 131//86
